<?xml version="1.0" standalone="no"?>
<!DOCTYPE svg PUBLIC "-//W3C//DTD SVG 20010904//EN"
 "http://www.w3.org/TR/2001/REC-SVG-20010904/DTD/svg10.dtd">
<svg version="1.0" xmlns="http://www.w3.org/2000/svg"
 width="128.000000pt" height="128.000000pt" viewBox="0 0 128.000000 128.000000"
 preserveAspectRatio="xMidYMid meet">

<g transform="translate(0.000000,128.000000) scale(0.100000,-0.100000)"
fill="#000000" stroke="none">
<path d="M404 1269 c-3 -6 0 -15 7 -20 9 -6 2 -9 -24 -9 -53 0 -129 -20 -124
-34 2 -6 14 -13 28 -17 22 -6 22 -7 -7 -8 -31 -1 -64 -27 -64 -49 0 -7 -19
-40 -43 -74 -45 -66 -84 -155 -73 -166 4 -3 16 0 28 7 19 12 20 11 13 -6 -27
-64 -45 -143 -45 -193 0 -64 14 -86 30 -46 5 14 11 26 12 26 2 0 4 -39 5 -88
2 -93 14 -150 29 -142 5 3 7 14 5 25 -6 41 7 8 23 -54 27 -105 104 -207 90
-118 -4 25 2 18 25 -30 26 -56 60 -91 74 -77 3 3 3 13 0 22 -3 10 4 4 15 -13
30 -46 74 -83 79 -67 3 9 14 0 30 -23 15 -22 31 -35 41 -33 11 2 23 -8 33 -26
32 -60 66 -60 98 0 10 18 22 28 33 26 10 -2 26 11 41 33 15 23 27 31 29 23 6
-17 30 2 71 57 17 22 27 33 24 23 -3 -9 -3 -19 0 -22 14 -14 48 21 74 77 23
48 29 55 25 30 -14 -89 63 13 90 118 16 62 29 95 23 54 -2 -11 0 -22 5 -25 15
-8 27 49 29 142 1 49 3 88 5 88 1 0 7 -12 12 -26 16 -40 30 -18 30 46 0 50
-18 129 -45 193 -7 17 -6 18 13 6 12 -7 24 -10 28 -7 11 11 -28 100 -73 166
-24 34 -43 68 -43 76 0 21 -34 46 -66 47 -28 1 -28 1 -5 8 14 4 26 11 28 18 5
15 -21 23 -95 30 -38 4 -58 9 -50 14 9 6 10 11 2 19 -15 15 -145 -5 -193 -29
l-38 -20 -59 23 c-70 28 -169 41 -180 25z m-69 -135 c22 -14 31 -22 20 -18
-11 4 -35 9 -52 12 -28 4 -34 0 -43 -23 -5 -14 -7 -38 -4 -52 5 -18 3 -24 -5
-19 -14 9 -15 81 -1 107 14 26 37 24 85 -7z m695 7 c13 -26 13 -98 -1 -107 -8
-4 -9 3 -4 24 10 47 -10 75 -48 70 -18 -3 -41 -9 -52 -13 -29 -12 -7 10 30 29
40 21 62 20 75 -3z m-710 -50 c0 -10 -30 -24 -37 -17 -3 3 -2 9 2 15 8 13 35
15 35 2z m675 -2 c4 -6 5 -12 2 -15 -7 -7 -37 7 -37 17 0 13 27 11 35 -2z
m-400 -170 l45 -42 45 42 c62 57 102 57 160 -2 55 -54 71 -109 56 -185 -15
-73 -32 -107 -56 -107 -14 0 -21 8 -23 25 -4 35 -34 90 -49 90 -17 0 -16 -12
2 -36 17 -22 19 -44 5 -44 -10 0 -32 46 -43 92 -7 25 -5 27 30 30 28 2 41 9
48 26 5 12 13 22 17 22 5 0 8 7 8 15 0 23 -71 20 -97 -4 -31 -29 -39 -94 -18
-141 22 -49 15 -76 -15 -58 -15 9 -27 10 -48 2 -20 -8 -35 -8 -47 -2 -9 6 -30
7 -46 4 -34 -7 -38 8 -13 56 11 22 14 43 9 75 -8 55 -37 83 -86 83 -40 0 -58
-13 -37 -27 7 -4 18 -17 24 -28 7 -13 24 -21 48 -23 34 -3 36 -5 29 -30 -11
-46 -33 -92 -43 -92 -14 0 -12 22 5 44 18 24 19 36 3 36 -17 0 -48 -55 -48
-84 0 -29 -7 -35 -31 -29 -23 6 -36 35 -50 106 -16 87 12 158 81 205 50 33 83
29 135 -19z m-72 -104 c-4 -15 -36 -12 -41 3 -3 9 3 13 19 10 13 -1 23 -7 22
-13z m277 6 c0 -6 -5 -13 -10 -16 -15 -9 -43 3 -35 15 8 13 45 13 45 1z m-193
-269 l28 -24 -24 -19 c-33 -27 -68 -34 -98 -20 -31 14 -27 20 16 23 32 2 49
14 37 25 -3 3 -11 1 -19 -5 -8 -7 -18 -7 -27 -2 -10 7 -11 10 -2 10 27 0 9 27
-25 37 l-38 11 38 -5 c39 -6 52 11 17 22 -22 7 -27 21 -9 27 6 2 26 -10 44
-27 18 -16 46 -41 62 -53z m175 55 c-33 -15 -27 -31 8 -23 19 3 29 2 25 -4 -3
-6 -17 -10 -31 -10 -15 0 -24 -6 -24 -15 0 -8 6 -15 13 -15 8 0 7 -3 -3 -10
-9 -6 -18 -6 -24 0 -14 14 -28 12 -23 -2 4 -13 6 -14 55 -17 l27 -2 -31 -16
c-36 -18 -67 -13 -104 17 l-25 20 28 23 c16 12 43 36 60 52 26 25 36 29 52 21
19 -9 19 -9 -3 -19z m-295 -63 c-3 -3 -12 -4 -19 -1 -8 3 -5 6 6 6 11 1 17 -2
13 -5z m330 0 c-3 -3 -12 -4 -19 -1 -8 3 -5 6 6 6 11 1 17 -2 13 -5z m-132
-74 c22 -11 45 -20 52 -20 19 0 16 -17 -8 -39 -41 -38 -136 -35 -180 5 -24 21
-24 34 -1 34 9 0 31 9 47 19 38 25 43 25 90 1z"/>
<path d="M546 572 c-3 -6 -1 -14 5 -17 15 -10 25 3 12 16 -7 7 -13 7 -17 1z"/>
<path d="M580 540 c0 -5 5 -10 10 -10 6 0 10 5 10 10 0 6 -4 10 -10 10 -5 0
-10 -4 -10 -10z"/>
<path d="M725 569 c-10 -15 3 -25 16 -12 7 7 7 13 1 17 -6 3 -14 1 -17 -5z"/>
<path d="M690 540 c0 -5 5 -10 10 -10 6 0 10 5 10 10 0 6 -4 10 -10 10 -5 0
-10 -4 -10 -10z"/>
</g>
</svg>
